<svg width="78" height="49" viewBox="0 0 78 49" fill="none" xmlns="http://www.w3.org/2000/svg">
<path d="M25.8572 5.82062C26.1332 5.5446 26.3522 5.21691 26.5015 4.85627C26.6509 4.49563 26.7278 4.1091 26.7278 3.71875C26.7278 3.32839 26.6509 2.94186 26.5015 2.58122C26.3522 2.22058 26.1332 1.89289 25.8572 1.61687C25.5812 1.34085 25.2535 1.1219 24.8928 0.972513C24.5322 0.823131 24.1457 0.746246 23.7553 0.746246C23.365 0.746246 22.9784 0.823131 22.6178 0.972513C22.2571 1.1219 21.9295 1.34085 21.6534 1.61687L0.872182 22.3981C0.595713 22.6739 0.376365 23.0015 0.226701 23.3622C0.0770382 23.7228 0 24.1095 0 24.5C0 24.8905 0.0770382 25.2771 0.226701 25.6378C0.376365 25.9985 0.595713 26.3261 0.872182 26.6019L21.6534 47.3831C22.2109 47.9406 22.9669 48.2537 23.7553 48.2537C24.5437 48.2537 25.2997 47.9406 25.8572 47.3831C26.4146 46.8257 26.7278 46.0696 26.7278 45.2812C26.7278 44.4929 26.4146 43.7368 25.8572 43.1794L7.17187 24.5L25.8572 5.82062ZM51.3409 5.82062C50.7835 5.26317 50.4703 4.5071 50.4703 3.71875C50.4703 2.93039 50.7835 2.17432 51.3409 1.61687C51.8984 1.05942 52.6544 0.746246 53.4428 0.746246C54.2312 0.746246 54.9872 1.05942 55.5447 1.61687L76.3259 22.3981C76.6024 22.6739 76.8217 23.0015 76.9714 23.3622C77.1211 23.7228 77.1981 24.1095 77.1981 24.5C77.1981 24.8905 77.1211 25.2771 76.9714 25.6378C76.8217 25.9985 76.6024 26.3261 76.3259 26.6019L55.5447 47.3831C54.9872 47.9406 54.2312 48.2537 53.4428 48.2537C52.6544 48.2537 51.8984 47.9406 51.3409 47.3831C50.7835 46.8257 50.4703 46.0696 50.4703 45.2812C50.4703 44.4929 50.7835 43.7368 51.3409 43.1794L70.0262 24.5L51.3409 5.82062Z" fill="url(#paint0_linear_39_26)"/>
<defs>
<linearGradient id="paint0_linear_39_26" x1="10.1371" y1="-13.4226" x2="85.6266" y2="1.95764" gradientUnits="userSpaceOnUse">
<stop stop-color="#2AC1F7"/>
<stop offset="1" stop-color="#376DF6"/>
</linearGradient>
</defs>
</svg>
