<svg width="94" height="95" viewBox="0 0 94 95" fill="none" xmlns="http://www.w3.org/2000/svg">
<path d="M92.2211 43.3112L51.1784 2.27428C50.6164 1.71205 49.9492 1.26606 49.2148 0.961765C48.4805 0.657474 47.6934 0.500854 46.8984 0.500854C46.1035 0.500854 45.3164 0.657474 44.582 0.961765C43.8477 1.26606 43.1805 1.71205 42.6185 2.27428L34.0998 10.793L44.9098 21.603C46.1847 21.1677 47.5562 21.0997 48.868 21.4065C50.1797 21.7134 51.3788 22.3828 52.3283 23.3385C53.2778 24.2941 53.9396 25.4974 54.238 26.8111C54.5364 28.1248 54.4595 29.496 54.016 30.768L64.4324 41.1903C65.9735 40.6477 67.6534 40.646 69.1955 41.1856C70.7377 41.7252 72.0501 42.7739 72.9167 44.1589C73.7833 45.544 74.1524 47.1828 73.9632 48.8057C73.7741 50.4285 73.0379 51.9386 71.876 53.0872C70.6997 54.2706 69.1491 55.009 67.4889 55.1762C65.8287 55.3433 64.1619 54.9289 62.7733 54.0036C61.3848 53.0784 60.3605 51.6997 59.8755 50.1032C59.3906 48.5066 59.4749 46.7912 60.1143 45.2499L50.4029 35.5327V61.1065C51.879 61.8372 53.0601 63.0518 53.7494 64.5477C54.4386 66.0436 54.5943 67.7306 54.1905 69.3274C53.7868 70.9243 52.8479 72.3345 51.5304 73.323C50.213 74.3115 48.5965 74.8187 46.9505 74.7599C45.3044 74.7011 43.7283 74.0799 42.4847 72.9999C41.2411 71.9199 40.4053 70.4464 40.1164 68.8248C39.8276 67.2032 40.1032 65.5317 40.8974 64.0887C41.6916 62.6457 42.9564 61.5186 44.4809 60.895V35.0862C43.6013 34.7258 42.8018 34.1948 42.1284 33.524C41.455 32.8531 40.9211 32.0556 40.5573 31.1774C40.1936 30.2992 40.0073 29.3577 40.0092 28.4072C40.011 27.4567 40.201 26.5159 40.5681 25.6392L29.9168 14.9819L1.7755 43.1232C1.21328 43.6851 0.767276 44.3523 0.462985 45.0867C0.158695 45.8211 0.0020752 46.6082 0.0020752 47.4031C0.0020752 48.198 0.158695 48.9851 0.462985 49.7195C0.767276 50.4539 1.21328 51.1211 1.7755 51.683L42.8183 92.7258C43.3802 93.288 44.0474 93.734 44.7818 94.0383C45.5162 94.3426 46.3033 94.4992 47.0982 94.4992C47.8931 94.4992 48.6802 94.3426 49.4146 94.0383C50.149 93.734 50.8162 93.288 51.3781 92.7258L92.227 51.8769C93.361 50.7412 93.998 49.2019 93.998 47.597C93.998 45.992 93.361 44.4527 92.227 43.317" fill="#F24E1E"/>
</svg>
