<svg width="107" height="114" viewBox="0 0 107 114" fill="none" xmlns="http://www.w3.org/2000/svg">
<path fill-rule="evenodd" clip-rule="evenodd" d="M61.6028 40.2278C61.9337 39.896 62.3268 39.6328 62.7596 39.4532C63.1924 39.2736 63.6564 39.1812 64.125 39.1812C64.5936 39.1812 65.0576 39.2736 65.4904 39.4532C65.9232 39.6328 66.3163 39.896 66.6473 40.2278L80.8973 54.4778C81.229 54.8087 81.4922 55.2018 81.6718 55.6346C81.8514 56.0674 81.9439 56.5314 81.9439 57C81.9439 57.4686 81.8514 57.9326 81.6718 58.3654C81.4922 58.7982 81.229 59.1913 80.8973 59.5223L66.6473 73.7723C65.9783 74.4412 65.071 74.817 64.125 74.817C63.179 74.817 62.2717 74.4412 61.6028 73.7723C60.9338 73.1033 60.558 72.196 60.558 71.25C60.558 70.304 60.9338 69.3967 61.6028 68.7278L73.3376 57L61.6028 45.2723C61.271 44.9413 61.0078 44.5482 60.8282 44.1154C60.6486 43.6826 60.5561 43.2186 60.5561 42.75C60.5561 42.2814 60.6486 41.8174 60.8282 41.3846C61.0078 40.9518 61.271 40.5587 61.6028 40.2278ZM52.3973 40.2278C52.0663 39.896 51.6732 39.6328 51.2404 39.4532C50.8076 39.2736 50.3436 39.1812 49.875 39.1812C49.4064 39.1812 48.9424 39.2736 48.5096 39.4532C48.0768 39.6328 47.6837 39.896 47.3528 40.2278L33.1028 54.4778C32.771 54.8087 32.5078 55.2018 32.3282 55.6346C32.1486 56.0674 32.0561 56.5314 32.0561 57C32.0561 57.4686 32.1486 57.9326 32.3282 58.3654C32.5078 58.7982 32.771 59.1913 33.1028 59.5223L47.3528 73.7723C48.0217 74.4412 48.929 74.817 49.875 74.817C50.821 74.817 51.7283 74.4412 52.3973 73.7723C53.0662 73.1033 53.442 72.196 53.442 71.25C53.442 70.304 53.0662 69.3967 52.3973 68.7278L40.6624 57L52.3973 45.2723C52.729 44.9413 52.9922 44.5482 53.1718 44.1154C53.3514 43.6826 53.4439 43.2186 53.4439 42.75C53.4439 42.2814 53.3514 41.8174 53.1718 41.3846C52.9922 40.9518 52.729 40.5587 52.3973 40.2278Z" fill="url(#paint0_linear_10_48)"/>
<path d="M21.375 0H92.625C96.4043 0 100.029 1.50134 102.701 4.17373C105.374 6.84612 106.875 10.4707 106.875 14.25V99.75C106.875 103.529 105.374 107.154 102.701 109.826C100.029 112.499 96.4043 114 92.625 114H21.375C17.5957 114 13.9711 112.499 11.2987 109.826C8.62634 107.154 7.125 103.529 7.125 99.75V92.625H14.25V99.75C14.25 101.64 15.0007 103.452 16.3369 104.788C17.6731 106.124 19.4853 106.875 21.375 106.875H92.625C94.5147 106.875 96.3269 106.124 97.6631 104.788C98.9993 103.452 99.75 101.64 99.75 99.75V14.25C99.75 12.3603 98.9993 10.5481 97.6631 9.21186C96.3269 7.87567 94.5147 7.125 92.625 7.125H21.375C19.4853 7.125 17.6731 7.87567 16.3369 9.21186C15.0007 10.5481 14.25 12.3603 14.25 14.25V21.375H7.125V14.25C7.125 10.4707 8.62634 6.84612 11.2987 4.17373C13.9711 1.50134 17.5957 0 21.375 0V0Z" fill="url(#paint1_linear_10_48)"/>
<path d="M7.125 35.625V32.0625C7.125 31.1177 7.50033 30.2115 8.16843 29.5434C8.83653 28.8753 9.74267 28.5 10.6875 28.5C11.6323 28.5 12.5385 28.8753 13.2066 29.5434C13.8747 30.2115 14.25 31.1177 14.25 32.0625V35.625H17.8125C18.7573 35.625 19.6635 36.0003 20.3316 36.6684C20.9997 37.3365 21.375 38.2427 21.375 39.1875C21.375 40.1323 20.9997 41.0385 20.3316 41.7066C19.6635 42.3747 18.7573 42.75 17.8125 42.75H3.5625C2.61767 42.75 1.71153 42.3747 1.04343 41.7066C0.375334 41.0385 0 40.1323 0 39.1875C0 38.2427 0.375334 37.3365 1.04343 36.6684C1.71153 36.0003 2.61767 35.625 3.5625 35.625H7.125ZM7.125 57V53.4375C7.125 52.4927 7.50033 51.5865 8.16843 50.9184C8.83653 50.2503 9.74267 49.875 10.6875 49.875C11.6323 49.875 12.5385 50.2503 13.2066 50.9184C13.8747 51.5865 14.25 52.4927 14.25 53.4375V57H17.8125C18.7573 57 19.6635 57.3753 20.3316 58.0434C20.9997 58.7115 21.375 59.6177 21.375 60.5625C21.375 61.5073 20.9997 62.4135 20.3316 63.0816C19.6635 63.7497 18.7573 64.125 17.8125 64.125H3.5625C2.61767 64.125 1.71153 63.7497 1.04343 63.0816C0.375334 62.4135 0 61.5073 0 60.5625C0 59.6177 0.375334 58.7115 1.04343 58.0434C1.71153 57.3753 2.61767 57 3.5625 57H7.125ZM7.125 78.375V74.8125C7.125 73.8677 7.50033 72.9615 8.16843 72.2934C8.83653 71.6253 9.74267 71.25 10.6875 71.25C11.6323 71.25 12.5385 71.6253 13.2066 72.2934C13.8747 72.9615 14.25 73.8677 14.25 74.8125V78.375H17.8125C18.7573 78.375 19.6635 78.7503 20.3316 79.4184C20.9997 80.0865 21.375 80.9927 21.375 81.9375C21.375 82.8823 20.9997 83.7885 20.3316 84.4566C19.6635 85.1247 18.7573 85.5 17.8125 85.5H3.5625C2.61767 85.5 1.71153 85.1247 1.04343 84.4566C0.375334 83.7885 0 82.8823 0 81.9375C0 80.9927 0.375334 80.0865 1.04343 79.4184C1.71153 78.7503 2.61767 78.375 3.5625 78.375H7.125Z" fill="url(#paint2_linear_10_48)"/>
<defs>
<linearGradient id="paint0_linear_10_48" x1="32.0561" y1="39.3374" x2="60.2755" y2="92.0449" gradientUnits="userSpaceOnUse">
<stop stop-color="#1572B6"/>
<stop offset="0.913725" stop-color="#5005AF" stop-opacity="0.59"/>
</linearGradient>
<linearGradient id="paint1_linear_10_48" x1="7.125" y1="0.499999" x2="114.311" y2="125.631" gradientUnits="userSpaceOnUse">
<stop stop-color="#1572B6"/>
<stop offset="0.913725" stop-color="#5005AF" stop-opacity="0.59"/>
</linearGradient>
<linearGradient id="paint2_linear_10_48" x1="2.79208e-07" y1="28.75" x2="43.4058" y2="50.4669" gradientUnits="userSpaceOnUse">
<stop stop-color="#1572B6"/>
<stop offset="0.913725" stop-color="#5005AF" stop-opacity="0.59"/>
</linearGradient>
</defs>
</svg>
