<svg width="56" height="83" viewBox="0 0 56 83" fill="none" xmlns="http://www.w3.org/2000/svg">
<g clip-path="url(#clip0_10_75)">
<path d="M14.25 83C21.84 83 28 76.8026 28 69.1666V55.3333H14.25C6.66 55.3333 0.5 61.5306 0.5 69.1666C0.5 76.8026 6.66 83 14.25 83Z" fill="#0ACF83"/>
<path d="M0.5 41.5C0.5 33.864 6.66 27.6667 14.25 27.6667H28V55.3334H14.25C6.66 55.3334 0.5 49.136 0.5 41.5Z" fill="#A259FF"/>
<path d="M0.5 13.8333C0.5 6.19733 6.66 0 14.25 0H28V27.6667H14.25C6.66 27.6667 0.5 21.4693 0.5 13.8333Z" fill="#F24E1E"/>
<path d="M28 0H41.75C49.34 0 55.5 6.19733 55.5 13.8333C55.5 21.4693 49.34 27.6667 41.75 27.6667H28V0Z" fill="#FF7262"/>
<path d="M55.5 41.5C55.5 49.136 49.34 55.3334 41.75 55.3334C34.16 55.3334 28 49.136 28 41.5C28 33.864 34.16 27.6667 41.75 27.6667C49.34 27.6667 55.5 33.864 55.5 41.5Z" fill="#1ABCFE"/>
</g>
<defs>
<clipPath id="clip0_10_75">
<rect width="55" height="83" fill="white" transform="translate(0.5)"/>
</clipPath>
</defs>
</svg>
