<svg width="73" height="99" viewBox="0 0 73 99" fill="none" xmlns="http://www.w3.org/2000/svg">
<g clip-path="url(#clip0_10_36)">
<path d="M0.5 79.5138L1.09709 78.684L29.3357 25.492L29.3953 24.9289L16.9475 1.71684C15.9041 -0.22752 12.9678 0.264155 12.6258 2.44082L0.5 79.5138Z" fill="#FFC24A"/>
<path d="M38.4702 42.4865L47.7388 33.0634L38.4674 15.4932C37.5873 13.83 35.13 13.825 34.2593 15.4932L29.3056 24.8708V25.6693L38.4699 42.4865H38.4702Z" fill="#F4BD62"/>
<path d="M0.5 79.5137L0.770562 79.2434L1.75381 78.847L37.888 43.1091L38.3458 41.8719L29.3318 24.8199L0.5 79.5137Z" fill="#F6820C"/>
<path d="M39.6278 97.537L72.3301 79.4316L62.9915 22.3361C62.6993 20.5498 60.4917 19.8437 59.2036 21.1244L0.5 79.5137L33.0148 97.5356C34.0254 98.0958 35.1636 98.39 36.3211 98.3902C37.4786 98.3905 38.6169 98.0968 39.6278 97.537Z" fill="#FDE068"/>
<path d="M72.0371 79.2798L62.7693 22.6179C62.4796 20.8449 60.6436 20.1115 59.3653 21.3827L0.862808 79.4026L33.0207 97.2459C34.0236 97.8018 35.1531 98.0938 36.3018 98.094C37.4505 98.0943 38.5801 97.8029 39.5833 97.2475L72.0373 79.2795L72.0371 79.2798Z" fill="#FCCA3F"/>
<path d="M39.6275 97.0035C38.6167 97.5632 37.4784 97.8568 36.3209 97.8566C35.1635 97.8563 34.0254 97.5622 33.0148 97.0021L0.761852 79.2392L0.50029 79.5137L33.0148 97.5356C34.0254 98.0958 35.1636 98.39 36.3211 98.3902C37.4786 98.3905 38.6169 98.0968 39.6278 97.537L72.3301 79.4316L72.25 78.9424L39.6278 97.0038L39.6275 97.0035Z" fill="#EEAB37"/>
</g>
<defs>
<clipPath id="clip0_10_36">
<rect width="72" height="98" fill="white" transform="translate(0.5 0.5)"/>
</clipPath>
</defs>
</svg>
