<svg width="128" height="65" viewBox="0 0 128 65" fill="none" xmlns="http://www.w3.org/2000/svg">
<g clip-path="url(#clip0_110_29)">
<path d="M31.8442 2.08397C32.3036 1.30248 32.9009 0.551757 33.7591 0.183589C34.1113 0.122559 34.4636 0.153322 34.8158 0.153322H52.1577C51.6522 0.582024 51.1621 1.0266 50.8252 1.60863C49.9367 3.06443 49.3389 4.68844 48.7878 6.31244C47.2251 11.2162 46.1371 16.2569 45.08 21.2982C44.6034 23.582 44.149 25.8703 43.7167 28.1629C42.3991 35.6403 41.0358 43.102 39.3352 50.5025C38.5236 53.9197 37.6961 57.3365 36.44 60.6306C35.8576 61.9946 35.291 63.4499 34.1728 64.4611C33.9124 64.6914 33.6519 64.9821 33.2838 64.9365H17.9645C16.9227 64.9057 15.8963 64.9975 14.8545 64.8904C15.544 64.3545 16.1567 63.7104 16.5551 62.9443C17.704 60.7532 18.4239 58.3784 19.1134 56.0186C20.186 52.2188 21.0432 48.3729 21.8558 44.527C22.3614 41.9989 22.9586 39.4858 23.3263 36.9423C23.74 34.1076 24.3681 31.3037 24.8736 28.4844C25.6703 24.3318 26.5127 20.1798 27.4473 16.058C28.1979 12.8402 28.9639 9.63737 29.9903 6.49653C30.4963 4.9797 31.047 3.47825 31.8442 2.08397V2.08397Z" fill="#EB7077" stroke="#EB7077" stroke-width="0.094"/>
<path d="M52.1582 0.153321C52.6022 0.153321 53.0462 0.137939 53.4907 0.153321C54.471 0.674313 55.2985 1.50145 55.7579 2.52805C56.3706 3.6926 56.8766 4.91866 57.3355 6.175C58.8679 10.9096 59.9097 15.7821 60.9515 20.6392C61.8395 24.9908 62.6829 29.3577 63.4791 33.74C63.5406 33.9697 63.4642 34.2917 63.7703 34.3528C62.667 40.1139 61.5796 45.8905 60.2009 51.606C59.4498 54.6858 58.6531 57.7503 57.52 60.7229C56.9068 62.209 56.2788 63.833 54.9765 64.8908C54.1496 65.0744 53.5518 64.4463 53.0467 63.8791C52.1736 62.7607 51.6368 61.4429 51.1159 60.125C49.3846 55.4063 48.3279 50.4876 47.2558 45.5844C46.4437 41.7687 45.7234 37.9233 44.9728 34.0927C44.6355 32.1462 44.1766 30.231 43.9161 28.2854C43.87 28.2547 43.7623 28.1931 43.7167 28.1629C44.149 25.8703 44.6035 23.582 45.08 21.2982C46.1371 16.2569 47.2251 11.2157 48.7878 6.31294C49.3389 4.68844 49.9367 3.06443 50.8252 1.60912C51.1626 1.0266 51.6522 0.582023 52.1577 0.153321H52.1582Z" fill="#F6A2AD" stroke="#F6A2AD" stroke-width="0.094"/>
<path d="M71.3223 2.80393C71.8745 1.74706 72.5482 0.567137 73.7433 0.168702C79.8254 0.137939 85.9075 0.153321 91.9891 0.153321C91.4221 0.719962 90.8248 1.2871 90.4413 2.00706C89.2621 4.12179 88.5725 6.46626 87.8681 8.77996C86.0603 15.1539 84.7888 21.6658 83.5783 28.1777C82.4601 34.5984 81.2651 41.018 79.9018 47.4078C79.1973 50.6251 78.4616 53.8274 77.5275 56.999C76.9297 58.9605 76.3021 60.9373 75.3214 62.7607C74.8461 63.5879 74.2944 64.4924 73.391 64.9211C67.5848 64.9673 61.7631 64.9211 55.9573 64.936C55.6354 64.936 55.2985 64.936 54.9765 64.8903C56.2788 63.8335 56.9069 62.209 57.52 60.7224C58.6536 57.7503 59.4498 54.6858 60.2009 51.606C61.5796 45.8905 62.667 40.1144 63.7703 34.3528C65.1028 26.9214 66.4973 19.4901 68.2743 12.1505C69.1013 8.97893 69.8981 5.76118 71.3228 2.80393H71.3223Z" fill="#EB7077" stroke="#EB7077" stroke-width="0.094"/>
<path d="M91.9891 0.153138C92.4793 0.153138 92.9848 0.137756 93.4749 0.153138C94.2716 0.566954 94.8387 1.27153 95.3442 1.9915C96.1712 3.30936 96.6921 4.79592 97.2284 6.25123C98.4998 10.1587 99.4499 14.1733 100.323 18.1874C101.487 23.5963 102.498 29.036 103.494 34.4751C103.739 35.7776 103.984 37.095 104.137 38.4133L104.367 38.6431C103.816 39.4092 103.601 40.3286 103.295 41.2019C102.33 44.3125 101.702 47.5302 101.165 50.7326C100.752 53.2452 100.185 55.743 99.4037 58.1639C98.8218 59.9566 98.1169 61.7339 96.953 63.2354C96.4009 63.9559 95.6503 64.5071 94.8233 64.8748C93.5518 65.0127 92.8007 63.7871 92.188 62.8831C90.9166 60.6612 90.2275 58.1793 89.4918 55.7579C87.0713 46.7944 85.4933 37.6165 83.7931 28.4996C83.7872 28.4322 83.7645 28.3674 83.7269 28.3111C83.6894 28.2548 83.6383 28.2089 83.5783 28.1776C84.7888 21.6657 86.0603 15.1537 87.8681 8.77978C88.5725 6.46608 89.2621 4.12161 90.4418 2.00688C90.8248 1.28692 91.4221 0.719779 91.9891 0.153138V0.153138ZM0.514877 35.0115C0.913737 34.9807 1.3121 34.9197 1.72535 34.9197H18.4239C19.1283 35.0115 19.864 34.9505 20.5382 35.2571C21.5254 35.663 22.3871 36.324 23.0351 37.1724C23.1119 37.1262 23.2499 37.0037 23.3263 36.9421C22.9587 39.4856 22.3614 41.9983 21.8558 44.5268C21.0437 48.3727 20.186 52.2186 19.1134 56.0184C18.4239 58.3783 17.704 60.753 16.5551 62.9441C16.1567 63.7102 15.544 64.3538 14.8545 64.8902C14.594 64.9363 14.3951 64.7522 14.1803 64.6143C13.4604 64.1548 13.0467 63.3579 12.6027 62.638C10.5037 57.8573 10.274 52.5709 8.97179 47.5759C8.31297 45.0786 7.50087 42.5962 6.30628 40.2978C5.57057 38.9184 4.66718 37.6011 3.48747 36.5437C2.61435 35.8391 1.60281 35.272 0.515373 35.0115H0.514877Z" fill="#F6A2AD" stroke="#F6A2AD" stroke-width="0.094"/>
<path d="M105.716 36.6054C106.68 35.5173 108.121 34.8281 109.576 34.8891H122.138C123.884 34.9199 125.646 34.8281 127.393 34.9353C126.872 35.2876 126.244 35.4255 125.692 35.7168C123.777 36.5901 122.138 38.0454 121.096 39.8688C119.427 42.7804 118.844 46.1207 118.354 49.3995C117.864 52.6173 117.879 55.9422 116.837 59.0681C116.133 61.2593 115.06 63.4653 113.207 64.9057C107.447 64.9673 101.686 64.9211 95.9415 64.9365C95.5585 64.9365 95.1909 64.9514 94.8233 64.875C95.6503 64.5078 96.4009 63.956 96.9525 63.2356C98.1169 61.7341 98.8218 59.9568 99.4037 58.1641C100.185 55.7427 100.752 53.2454 101.165 50.7328C101.702 47.5304 102.33 44.3122 103.295 41.2021C103.601 40.3288 103.816 39.4094 104.367 38.6433C104.827 37.9689 105.133 37.1875 105.716 36.6054V36.6054Z" fill="#EB7077" stroke="#EB7077" stroke-width="0.094"/>
</g>
<defs>
<clipPath id="clip0_110_29">
<rect width="127" height="65" fill="white" transform="translate(0.5)"/>
</clipPath>
</defs>
</svg>
