<svg width="79" height="79" viewBox="0 0 79 79" fill="none" xmlns="http://www.w3.org/2000/svg">
<g clip-path="url(#clip0_10_31)">
<path d="M0.5 0.5H78.5V78.5H0.5V0.5Z" fill="#F7DF1E"/>
<path d="M21.0091 65.6824L26.978 62.07C28.1297 64.1118 29.1772 65.8393 31.6899 65.8393C34.0985 65.8393 35.6174 64.8972 35.6174 61.2325V36.3096H42.9472V61.3361C42.9472 68.928 38.497 72.3837 32.0041 72.3837C26.1404 72.3837 22.7367 69.3469 21.0088 65.6818M46.9286 64.8969L52.8968 61.4415C54.4681 64.0072 56.5101 65.892 60.1225 65.892C63.1599 65.892 65.0965 64.3735 65.0965 62.2791C65.0965 59.766 63.1069 58.8757 59.7559 57.4102L57.9238 56.6241C52.6354 54.3733 49.1275 51.5458 49.1275 45.577C49.1275 40.0792 53.3161 35.8904 59.861 35.8904C64.5209 35.8904 67.8719 37.5138 70.2801 41.7547L64.5727 45.4201C63.3159 43.1688 61.9552 42.2788 59.8607 42.2788C57.7139 42.2788 56.3526 43.6401 56.3526 45.4201C56.3526 47.619 57.7139 48.5096 60.8552 49.871L62.6876 50.6561C68.9185 53.3267 72.4264 56.0491 72.4264 62.1746C72.4264 68.7723 67.243 72.3846 60.2794 72.3846C53.473 72.3846 49.0748 69.1385 46.9283 64.8972" fill="black"/>
</g>
<defs>
<clipPath id="clip0_10_31">
<rect width="78" height="78" fill="white" transform="translate(0.5 0.5)"/>
</clipPath>
</defs>
</svg>
