<svg width="90" height="89" viewBox="0 0 90 89" fill="none" xmlns="http://www.w3.org/2000/svg">
<path fill-rule="evenodd" clip-rule="evenodd" d="M45 5.5625C52.7011 5.5625 60.2293 7.84614 66.6325 12.1247C73.0358 16.4032 78.0265 22.4844 80.9736 29.5993C83.9206 36.7142 84.6917 44.5432 83.1893 52.0963C81.6869 59.6495 77.9785 66.5875 72.533 72.033C67.0875 77.4785 60.1495 81.1869 52.5963 82.6893C45.0432 84.1917 37.2142 83.4206 30.0993 80.4736C22.9844 77.5265 16.9032 72.5358 12.6247 66.1325C8.34614 59.7293 6.0625 52.2011 6.0625 44.5C6.0625 34.1731 10.1648 24.2692 17.467 16.967C24.7692 9.66483 34.6731 5.5625 45 5.5625Z" fill="#CC6699"/>
<path d="M69.425 22.2278C67.6616 15.3136 56.1945 13.0496 45.3421 16.8933C38.5456 19.1771 32.2662 22.779 26.8635 27.4927C20.8866 33.083 19.9326 37.9502 20.3248 39.9833C21.7154 47.1589 31.5415 51.8481 35.5827 55.3274V55.3469C34.3923 55.9337 25.6703 60.3531 23.6233 64.8588C21.4706 69.6203 23.9654 73.0356 25.6203 73.4945C28.1048 74.0927 30.7143 73.898 33.0826 72.9378C35.4509 71.9776 37.4591 70.3001 38.8256 68.1406C39.955 66.391 40.6615 64.4025 40.8894 62.3325C41.1172 60.2626 40.8601 58.168 40.1384 56.2146C42.0849 55.72 44.1083 55.6039 46.0986 55.8725C52.9294 56.6708 54.2699 60.9344 54.014 62.72C53.8937 63.3556 53.6379 63.9578 53.264 64.4857C52.8902 65.0136 52.407 65.4548 51.8475 65.7793C51.3691 66.0769 51.2217 66.1771 51.2634 66.3996C51.3218 66.7194 51.5415 66.7083 51.9504 66.6388C52.9769 66.3155 53.8813 65.6888 54.5446 64.8413C55.2079 63.9938 55.5989 62.9653 55.6661 61.8912C55.8302 57.7193 51.8224 53.0301 44.7247 53.1497C42.6632 53.0908 40.6061 53.3727 38.6365 53.9841C38.5379 53.8714 38.4378 53.7602 38.3361 53.6503C33.9473 48.9695 25.8372 45.657 26.1793 39.363C26.3045 37.0741 27.0999 31.0499 41.7543 23.7408C53.7693 17.7527 63.3869 19.402 65.05 23.0538C67.4252 28.2714 59.9103 37.9641 47.4336 39.363C46.0546 39.643 44.6302 39.6088 43.2662 39.2631C41.9022 38.9174 40.6335 38.2691 39.5543 37.3661C38.898 36.643 38.8006 36.6124 38.5559 36.7459C38.1581 36.9656 38.4112 37.6053 38.5559 37.9835C39.0336 38.8445 39.6785 39.6015 40.4527 40.2099C41.2268 40.8184 42.1147 41.2661 43.0643 41.5268C47.9698 42.5928 53.0864 42.0867 57.6881 40.0806C65.2559 37.1631 71.1577 29.0279 69.425 22.2278ZM37.2626 57.469C37.815 59.3733 37.7869 61.3991 37.1819 63.2873C37.117 63.4839 37.0456 63.6786 36.9678 63.8714C36.8899 64.0642 36.8055 64.2497 36.7147 64.4277C36.2466 65.3854 35.6403 66.269 34.9152 67.0504C32.654 69.5173 29.4918 70.4519 28.1373 69.6648C26.6744 68.8165 27.4058 65.3371 30.0285 62.5642C32.0438 60.5714 34.3672 58.9167 36.9094 57.6637L37.2626 57.469Z" fill="white"/>
</svg>
