<svg width="99" height="99" viewBox="0 0 99 99" fill="none" xmlns="http://www.w3.org/2000/svg">
<path d="M18.5749 83.8031L11.6965 6.625H87.3035L80.4159 83.7908L49.4541 92.375L18.5749 83.8031Z" fill="#1572B6"/>
<path d="M49.5 85.8152L74.5206 78.8786L80.4067 12.9368H49.5V85.8152Z" fill="#33A9DC"/>
<path d="M49.5 40.8975H62.0256L62.8892 31.2047H49.5V21.7385H73.2344L73.0078 24.2773L70.6833 50.3637H49.5V40.8975Z" fill="white"/>
<path d="M49.5582 65.4802L49.5153 65.4924L38.9742 62.6443L38.3004 55.0952H28.7975L30.1236 69.9575L49.5123 75.3414L49.5582 75.3292V65.4802Z" fill="#EBEBEB"/>
<path d="M61.2202 49.9624L60.0809 62.6381L49.5245 65.4862V75.3352L68.9285 69.9575L69.0724 68.3588L70.717 49.9624H61.2202Z" fill="white"/>
<path d="M49.5337 21.7385V31.2047H26.6691L26.4792 29.0762L26.0474 24.2773L25.8208 21.7385H49.5337ZM49.5 40.8975V50.3637H39.0906L38.9007 48.2352L38.4719 43.4363L38.2453 40.8975H49.5Z" fill="#EBEBEB"/>
</svg>
