<svg width="98" height="97" viewBox="0 0 98 97" fill="none" xmlns="http://www.w3.org/2000/svg">
<path d="M18.3904 82.103L11.5792 6.5H86.4208L79.6005 82.091L48.9545 90.5L18.3904 82.103Z" fill="#E44F26"/>
<path d="M49 84.074L73.7653 77.279L79.5914 12.683H49V84.074Z" fill="#F1662A"/>
<path d="M49 40.721H36.6022L35.7474 31.226H49V21.953H25.5078L25.7321 24.443L28.0328 49.994H49V40.721ZM49 64.802L48.9576 64.814L38.524 62.027L37.8571 54.632H28.4512L29.7637 69.188L48.9576 74.462L49 74.45V64.802Z" fill="#EBEBEB"/>
<path d="M48.9667 40.721V49.994H60.5036L59.4184 62.021L48.9667 64.811V74.459L68.1757 69.188L68.3151 67.622L70.5158 43.211L70.7462 40.721H48.9667ZM48.9667 21.953V31.226H71.598L71.7859 29.144L72.2133 24.443L72.4376 21.953H48.9667Z" fill="white"/>
</svg>
